:SAMPLES-PER-SECOND 30
:FULLY-SPECIFIED
:DEGREES
355
root  10.2837 40.6374 -7.09053 -151.415 -84.9004 151.061
RightUpLeg  -0.813955 -12.185 -14.4888
RightLeg  3.17141 -5.68598 2.4318
RightFoot  2.43382 -0.780103 6.59185
RightToes  0.00048216 0.542163 -0.142577
Spine  0.582636 -1.54619 -1.19684
Spine1  13.2811 -1.91122 0.853867
HEad  -17.8005 1.66421 6.99498
LeftShoulder1  10.6462 -14.889 -50.5317
LeftArm  5.26804 2.2804 -25.657
LeftForeArm  34.4608 -19.5073 -4.2708
LeftHand  -0.25398 0.0180481 5.50724
RightShoulder  6.52005 10.3396 40.9068
RightArm  6.68445 0.329647 33.1389
RightForeArm  23.6042 20.3965 4.14573
RightHand  -1.06364 7.09563 -10.2948
LeftUpLeg  1.66893 6.21594 5.88231
LeftLeg  1.18302 11.9275 -3.31934
LeftFoot  -0.285495 0.405535 -4.18419
LeftToes  1.06241e-005 4.65855e-005 -8.18508e-006
356
root  10.2489 40.6388 -7.11158 -152.398 -84.8855 152.016
RightUpLeg  -0.712954 -12.1123 -14.3894
RightLeg  3.1176 -5.70377 2.42282
RightFoot  2.39765 -0.78064 6.61857
RightToes  0.00048216 0.542163 -0.142577
Spine  0.759676 -1.40594 -1.45607
Spine1  12.9102 -1.93376 1.44004
HEad  -18.6888 1.16209 6.64394
LeftShoulder1  10.2382 -14.4653 -49.7466
LeftArm  4.05949 4.42012 -25.1385
LeftForeArm  36.998 -24.7073 -3.24231
LeftHand  -0.25398 0.0180481 5.50724
RightShoulder  6.24309 10.0213 40.0185
RightArm  4.01294 -0.71787 32.1501
RightForeArm  24.1467 23.9638 3.79917
RightHand  -1.11141 7.25823 -10.6081
LeftUpLeg  1.77835 6.27288 5.99672
LeftLeg  1.1749 11.9032 -3.3113
LeftFoot  -0.332038 0.407091 -4.21023
LeftToes  1.06241e-005 4.65855e-005 -8.18508e-006
357
root  10.2153 40.6394 -7.11942 -153.264 -84.859 152.941
RightUpLeg  -0.703142 -12.0669 -14.3033
RightLeg  3.05187 -5.71091 2.43193
RightFoot  2.38625 -0.777359 6.58041
RightToes  0.00048216 0.542163 -0.142577
Spine  0.820479 -1.26961 -1.51097
Spine1  12.4881 -1.87568 1.75234
HEad  -19.3008 0.700396 6.13643
LeftShoulder1  9.80852 -14.1111 -48.6147
LeftArm  0.393854 6.82493 -23.5294
LeftForeArm  42.046 -29.51 -4.12395
LeftHand  -0.25398 0.0180481 5.50724
RightShoulder  5.85318 9.58525 38.6467
RightArm  -0.160981 -1.21348 30.3281
RightForeArm  23.8092 26.156 4.3384
RightHand  -1.21829 7.15023 -11.6708
LeftUpLeg  1.78548 6.33286 6.08398
LeftLeg  1.17874 11.8945 -3.32584
LeftFoot  -0.379856 0.408096 -4.22693
LeftToes  1.06241e-005 4.65855e-005 -8.18508e-006
358
root  10.1757 40.6398 -7.11986 -153.628 -84.8169 153.407
RightUpLeg  -0.733627 -12.0716 -14.2812
RightLeg  3.0026 -5.67081 2.45769
RightFoot  2.36526 -0.774484 6.55096
RightToes  0.00048216 0.542163 -0.142577
Spine  0.551093 -1.15361 -1.25437
Spine1  12.2801 -1.67354 1.5091
HEad  -19.6009 0.592943 5.71858
LeftShoulder1  9.28012 -13.7674 -46.8838
LeftArm  -1.89895 8.84795 -21.299
LeftForeArm  44.1415 -32.483 -4.69524
LeftHand  -0.25398 0.0180481 5.50724
RightShoulder  5.42473 9.08161 37.0918
RightArm  -3.6155 -1.03118 27.7047
RightForeArm  21.3768 26.4119 4.52607
RightHand  -1.35714 7.1269 -12.9615
LeftUpLeg  1.77299 6.37951 6.12208
LeftLeg  1.14594 11.8922 -3.37676
LeftFoot  -0.429087 0.408635 -4.23654
LeftToes  1.06241e-005 4.65855e-005 -8.18508e-006
359
root  10.1292 40.6399 -7.12088 -153.787 -84.7481 153.609
RightUpLeg  -0.711905 -12.0913 -14.3108
RightLeg  2.9875 -5.57641 2.47147
RightFoot  2.30348 -0.776018 6.60031
RightToes  0.00048216 0.542163 -0.142577
Spine  0.0446525 -1.00464 -0.772612
Spine1  12.3734 -1.33355 0.896459
HEad  -19.7531 0.746376 5.47358
LeftShoulder1  8.60182 -13.2984 -44.5934
LeftArm  -3.98818 10.0687 -18.815
LeftForeArm  44.0678 -32.921 -4.80488
LeftHand  -0.25398 0.0180481 5.50724
RightShoulder  4.95952 8.53142 35.2415
RightArm  -6.55315 -0.296124 24.6034
RightForeArm  17.9702 24.605 4.32934
RightHand  -1.47858 7.33168 -13.8608
LeftUpLeg  1.84559 6.39916 6.12572
LeftLeg  1.09805 11.9239 -3.41781
LeftFoot  -0.496299 0.409688 -4.25475
LeftToes  1.06241e-005 4.65855e-005 -8.18508e-006
360
root  10.0839 40.6397 -7.12601 -153.864 -84.7679 153.571
RightUpLeg  -0.50032 -12.0851 -14.3461
RightLeg  2.9805 -5.55916 2.46174
RightFoot  2.20661 -0.777016 6.66116
RightToes  0.00048216 0.542163 -0.142577
Spine  -0.350428 -0.831785 -0.26929
Spine1  12.5628 -0.990107 0.336179
HEad  -19.8307 0.729157 5.17555
LeftShoulder1  7.80446 -12.6608 -41.9076
LeftArm  -6.17062 10.5763 -16.3932
LeftForeArm  42.4257 -31.0871 -4.46643
LeftHand  -0.25398 0.0180481 5.50724
RightShoulder  4.43042 7.90895 32.8746
RightArm  -9.68097 0.685885 21.4402
RightForeArm  14.7479 21.1575 4.11028
RightHand  -1.54759 7.57884 -14.2206
LeftUpLeg  2.03795 6.40323 6.14855
LeftLeg  1.11318 11.8824 -3.39449
LeftFoot  -0.58331 0.411635 -4.28742
LeftToes  1.06241e-005 4.65855e-005 -8.18508e-006
361
root  10.0449 40.6392 -7.13583 -153.316 -84.9989 152.762
RightUpLeg  -0.0645844 -12.0681 -14.3829
RightLeg  2.96417 -5.73312 2.44951
RightFoot  2.10124 -0.771672 6.66209
RightToes  0.00048216 0.542163 -0.142577
Spine  -0.48517 -0.716034 0.103315
Spine1  12.6711 -0.771781 -0.00608915
HEad  -19.7704 0.479408 4.61452
LeftShoulder1  6.93479 -11.8927 -38.8493
LeftArm  -8.47515 10.7287 -14.231
LeftForeArm  39.4777 -27.6062 -3.83467
LeftHand  -0.25398 0.0180481 5.50724
RightShoulder  3.85725 7.17207 30.1667
RightArm  -14.3024 1.58159 18.3352
RightForeArm  13.7328 16.8867 4.31507
RightHand  -1.58579 7.74724 -14.3805
LeftUpLeg  2.30042 6.40972 6.2141
LeftLeg  1.20167 11.6219 -3.32039
LeftFoot  -0.666015 0.413861 -4.32492
LeftToes  1.06241e-005 4.65855e-005 -8.18508e-006
362
root  10.006 40.6383 -7.1513 -151.523 -85.3738 150.719
RightUpLeg  0.403749 -12.0851 -14.4503
RightLeg  2.97554 -6.03136 2.45447
RightFoot  1.98529 -0.766777 6.672
RightToes  0.00048216 0.542163 -0.142577
Spine  -0.589272 -0.679177 0.31967
Spine1  12.7322 -0.655912 -0.266605
HEad  -19.529 0.310888 4.00174
LeftShoulder1  6.01899 -10.992 -35.4438
LeftArm  -11.139 10.7813 -12.2992
LeftForeArm  35.8147 -23.2469 -3.20204
LeftHand  -0.25398 0.0180481 5.50724
RightShoulder  3.29071 6.31304 27.4953
RightArm  -18.9266 2.14494 15.4065
RightForeArm  13.7571 12.8979 4.14665
RightHand  -1.6544 7.98028 -14.7292
LeftUpLeg  2.52346 6.40343 6.27063
LeftLeg  1.27668 11.2017 -3.25055
LeftFoot  -0.721142 0.416443 -4.36844
LeftToes  1.06241e-005 4.65855e-005 -8.18508e-006
363
root  9.95949 40.636 -7.17362 -148.739 -85.721 147.84
RightUpLeg  0.685132 -12.1388 -14.5357
RightLeg  3.05288 -6.31988 2.47346
RightFoot  1.82798 -0.768947 6.76176
RightToes  0.00048216 0.542163 -0.142577
Spine  -0.848712 -0.659632 0.388818
Spine1  12.7349 -0.564494 -0.488429
HEad  -19.1606 0.296594 3.70495
LeftShoulder1  5.09973 -9.92031 -31.9416
LeftArm  -14.4522 10.8168 -10.3407
LeftForeArm  32.6797 -18.8382 -2.96761
LeftHand  -0.25398 0.0180481 5.50724
RightShoulder  2.75847 5.37945 24.9266
RightArm  -22.4089 2.18731 12.8837
RightForeArm  12.9145 9.99006 3.41683
RightHand  -1.761 8.32315 -15.2695
LeftUpLeg  2.61827 6.36451 6.27579
LeftLeg  1.28939 10.8151 -3.20176
LeftFoot  -0.756783 0.419973 -4.42712
LeftToes  1.06241e-005 4.65855e-005 -8.18508e-006
364
root  9.90659 40.6325 -7.20251 -146.162 -85.9891 145.292
RightUpLeg  0.801956 -12.1814 -14.5708
RightLeg  3.15767 -6.57294 2.50042
RightFoot  1.63479 -0.769034 6.85207
RightToes  0.00048216 0.542163 -0.142577
Spine  -1.0968 -0.605302 0.297314
Spine1  12.4701 -0.494257 -0.508394
HEad  -18.6989 0.179994 3.63391
LeftShoulder1  4.23932 -8.71441 -28.603
LeftArm  -16.8748 10.8968 -8.30594
LeftForeArm  29.578 -15.0953 -2.73958
LeftHand  -0.25398 0.0180481 5.50724
RightShoulder  2.26263 4.41737 22.2994
RightArm  -25.2573 1.6134 10.8978
RightForeArm  10.5687 8.42564 2.60173
RightHand  -1.85751 8.55385 -15.8204
LeftUpLeg  2.60499 6.32672 6.28867
LeftLeg  1.30063 10.5189 -3.15319
LeftFoot  -0.804108 0.423866 -4.49183
LeftToes  1.06241e-005 4.65855e-005 -8.18508e-006
365
root  9.85282 40.6304 -7.23549 -144.554 -86.2445 143.716
RightUpLeg  0.931959 -12.177 -14.515
RightLeg  3.20379 -6.83651 2.54071
RightFoot  1.46667 -0.758477 6.83859
RightToes  0.00048216 0.542163 -0.142577
Spine  -1.14891 -0.508574 0.0804425
Spine1  11.8642 -0.450313 -0.285546
HEad  -18.0861 -0.106508 3.37786
LeftShoulder1  3.47705 -7.49336 -25.4158
LeftArm  -17.8544 11.1231 -6.43993
LeftForeArm  26.4396 -12.3745 -2.39176
LeftHand  -0.25398 0.0180481 5.50724
RightShoulder  1.80268 3.40342 19.6622
RightArm  -27.7463 0.6193 9.31665
RightForeArm  7.08633 8.02262 2.06061
RightHand  -1.94901 8.58705 -16.5283
LeftUpLeg  2.5807 6.33887 6.389
LeftLeg  1.35807 10.2282 -3.09859
LeftFoot  -0.871765 0.42752 -4.55316
LeftToes  1.06241e-005 4.65855e-005 -8.18508e-006
366
root  9.79974 40.6299 -7.26864 -143.332 -86.5239 142.489
RightUpLeg  1.1477 -12.1441 -14.4128
RightLeg  3.15866 -7.12519 2.59564
RightFoot  1.36406 -0.742966 6.74908
RightToes  0.00048216 0.542163 -0.142577
Spine  -1.13956 -0.388576 -0.171921
Spine1  11.2312 -0.391738 -0.0170223
HEad  -17.3278 -0.340882 2.90162
LeftShoulder1  2.81606 -6.32661 -22.284
LeftArm  -18.5168 11.5327 -4.9469
LeftForeArm  23.9075 -10.8382 -2.00209
LeftHand  -0.25398 0.0180481 5.50724
RightShoulder  1.38654 2.30786 17.2394
RightArm  -29.4832 -0.374589 7.9323
RightForeArm  3.56123 8.22219 1.82118
RightHand  -2.10131 8.72146 -17.6005
LeftUpLeg  2.60202 6.37717 6.54498
LeftLeg  1.40741 9.90796 -3.04182
LeftFoot  -0.929607 0.431958 -4.62698
LeftToes  1.06241e-005 4.65855e-005 -8.18508e-006
367
root  9.74954 40.63 -7.29897 -141.315 -86.8161 140.432
RightUpLeg  1.4204 -12.1195 -14.3387
RightLeg  3.07398 -7.43177 2.64959
RightFoot  1.2931 -0.730569 6.67119
RightToes  0.00048216 0.542163 -0.142577
Spine  -1.21117 -0.295017 -0.425998
Spine1  10.8884 -0.333822 0.17473
HEad  -16.5799 -0.433756 2.55667
LeftShoulder1  2.24491 -5.16391 -19.3429
LeftArm  -19.5189 12.0275 -3.75821
LeftForeArm  21.8275 -10.4718 -1.57777
LeftHand  -0.25398 0.0180481 5.50724
RightShoulder  1.03407 1.22639 15.0597
RightArm  -30.447 -1.12597 6.71753
RightForeArm  1.27324 8.49232 1.7211
RightHand  -2.31405 9.18605 -18.7235
LeftUpLeg  2.66712 6.3782 6.66538
LeftLeg  1.41074 9.58772 -2.96694
LeftFoot  -0.959626 0.437472 -4.71781
LeftToes  1.06241e-005 4.65855e-005 -8.18508e-006
